<?xml version="1.0" encoding="utf-8"?>
<!-- Generator: Adobe Illustrator 15.1.0, SVG Export Plug-In . SVG Version: 6.00 Build 0)  -->
<!DOCTYPE svg PUBLIC "-//W3C//DTD SVG 1.1//EN" "http://www.w3.org/Graphics/SVG/1.1/DTD/svg11.dtd">
<svg version="1.1" id="Layer_1" xmlns="http://www.w3.org/2000/svg" xmlns:xlink="http://www.w3.org/1999/xlink" x="0px" y="0px"
	 width="142.704px" height="25.307px" viewBox="0 0 142.704 25.307" enable-background="new 0 0 142.704 25.307"
	 xml:space="preserve">
<polygon fill="#DBDBDB" points="14.329,0.29 17.487,10.006 27.703,10.006 19.438,15.731 22.594,25.307 14.329,19.232 6.064,25.201 
	9.22,15.748 0.955,10.006 11.172,10.006 "/>
<polygon fill="#DBDBDB" points="43.329,0.29 46.487,10.006 56.703,10.006 48.438,15.731 51.594,25.307 43.329,19.232 35.064,25.201 
	38.22,15.748 29.955,10.006 40.172,10.006 "/>
<polygon fill="#DBDBDB" points="71.329,0.29 74.487,10.006 84.704,10.006 76.438,15.731 79.594,25.307 71.329,19.232 63.063,25.201 
	66.22,15.748 57.955,10.006 68.172,10.006 "/>
<polygon fill="#DBDBDB" points="100.329,0.29 103.487,10.006 113.704,10.006 105.438,15.731 108.594,25.307 100.329,19.232 
	92.063,25.201 95.22,15.748 86.956,10.006 97.172,10.006 "/>
<polygon fill="#DBDBDB" points="129.329,0.29 132.487,10.006 142.704,10.006 134.438,15.731 137.594,25.307 129.329,19.232 
	121.063,25.201 124.22,15.748 115.956,10.006 126.172,10.006 "/>
</svg>
